<?xml version="1.0" encoding="UTF-8"?>
<svg width="700pt" height="700pt" version="1.1" viewBox="0 0 700 700" xmlns="http://www.w3.org/2000/svg">
 <g>
  <path d="m350 367.5c35.387 0 64.168-28.781 64.168-64.168s-28.781-64.168-64.168-64.168c-35.387 0.003907-64.168 28.781-64.168 64.168s28.781 64.168 64.168 64.168zm0-93.332c16.086 0 29.168 13.078 29.168 29.168 0 16.086-13.078 29.168-29.168 29.168-16.086 0-29.168-13.078-29.168-29.168 0-16.09 13.082-29.168 29.168-29.168z"/>
  <path d="m624.17 186.67c0-35.387-28.781-64.168-64.168-64.168s-64.168 28.781-64.168 64.168c0 2.2461 0.4375 4.375 0.66406 6.5625l-46.008 18.391-57.953-93.938c13.168-11.762 21.633-28.68 21.633-47.684 0-35.387-28.781-64.168-64.168-64.168s-64.168 28.781-64.168 64.168c0 19.004 8.4648 35.922 21.633 47.68l-57.953 93.938-46.008-18.391c0.22656-2.1836 0.66406-4.3125 0.66406-6.5586 0-35.387-28.781-64.168-64.168-64.168s-64.168 28.781-64.168 64.168c0 31.277 22.508 57.309 52.164 62.953l17.906 218.48 0.19922-0.015624c2.9062 60.898 183.17 62.746 203.9 62.746s200.99-1.8477 203.9-62.746l0.19922 0.015624 17.902-218.48c29.656-5.6445 52.164-31.676 52.164-62.953zm-274.17-145.84c16.086 0 29.168 13.078 29.168 29.168 0 16.086-13.082 29.168-29.168 29.168s-29.168-13.082-29.168-29.168 13.082-29.168 29.168-29.168zm-99.828 208.75c7.8086 3.1484 16.977 0.066407 21.395-7.0508l67.551-109.46c3.5547 0.60938 7.1562 1.0977 10.883 1.0977s7.3281-0.48828 10.879-1.0977l67.551 109.46c4.4062 7.1172 13.633 10.184 21.395 7.0508l59.629-23.844c7.1523 9.2266 16.633 16.461 27.707 20.707l-14.965 182.58c-53.434-25.461-156.8-26.523-172.2-26.523s-118.76 1.0625-172.2 26.523l-14.965-182.58c11.074-4.2461 20.559-11.48 27.707-20.707zm-139.34-62.914c0-16.086 13.078-29.168 29.168-29.168 16.086 0 29.168 13.078 29.168 29.168 0 16.086-13.082 29.164-29.168 29.164s-29.168-13.078-29.168-29.164zm239.17 309.16c-94.973 0-155.72-17.75-167.89-29.168 12.168-11.418 72.918-29.168 167.89-29.168s155.72 17.75 167.89 29.168c-12.168 11.418-72.918 29.168-167.89 29.168zm210-280c-16.086 0-29.168-13.078-29.168-29.168 0-16.086 13.082-29.164 29.168-29.164s29.168 13.078 29.168 29.168c0 16.086-13.082 29.164-29.168 29.164z"/>
 </g>
</svg>
